<svg width="26" height="27" viewBox="0 0 26 27" fill="none" xmlns="http://www.w3.org/2000/svg">
<path d="M0 7.67087V15.8732C0 18.8221 1.91336 21.3329 4.56747 22.2147C4.31579 21.5161 4.18137 20.7574 4.18137 19.9701V14.8483C4.18137 9.45735 8.54863 5.08562 13.9341 5.08562H19.0507C19.7914 5.08562 20.495 5.203 21.1585 5.42631C20.2376 2.83534 17.7665 0.988739 14.8664 0.988739H6.67817C2.99159 0.988739 0.00285955 3.98052 0.00285955 7.67087H0Z" fill="#FB0033"/>
<path d="M4.56756 22.2146C5.48849 24.7999 7.95955 26.6522 10.8596 26.6522H19.0479C22.7373 26.6522 25.7289 23.6576 25.7289 19.9644V11.7735C25.7289 8.8189 23.8156 6.30809 21.1557 5.4263C21.4074 6.12486 21.5418 6.88927 21.5418 7.67658V12.7955C21.5418 18.1836 17.1774 22.5525 11.7949 22.5525H6.67254C5.93179 22.5525 5.22822 22.4351 4.5647 22.2118L4.56756 22.2146Z" fill="#FB0033"/>
</svg>
